<svg xmlns="http://www.w3.org/2000/svg" xmlns:xlink="http://www.w3.org/1999/xlink" width="166.773" height="40.589" viewBox="0 0 166.773 40.589">
  <defs>
    <linearGradient id="linear-gradient" x1="0.5" x2="0.5" y2="0.917" gradientUnits="objectBoundingBox">
      <stop offset="0" stop-color="#a336bd"/>
      <stop offset="0.396" stop-color="#ff387d"/>
      <stop offset="0.651" stop-color="#ff5d34"/>
      <stop offset="1" stop-color="#ffaa1b"/>
    </linearGradient>
    <linearGradient id="linear-gradient-2" x1="0.5" y1="0.25" x2="0.5" y2="1.719" gradientUnits="objectBoundingBox">
      <stop offset="0" stop-color="#a336bd"/>
      <stop offset="0.403" stop-color="#ff387d"/>
      <stop offset="0.611" stop-color="#ff5d34"/>
      <stop offset="1" stop-color="#ffaa1b"/>
    </linearGradient>
  </defs>
  <g id="Group_15" data-name="Group 15" transform="translate(-137.616 -177)">
    <g id="Group_14" data-name="Group 14" transform="translate(137.616 177)">
      <path id="Subtraction_1" data-name="Subtraction 1" d="M17.706,35.411a17.623,17.623,0,0,1-9.9-3.024A17.758,17.758,0,0,1,1.391,24.6,17.682,17.682,0,0,1,3.024,7.806a17.757,17.757,0,0,1,7.79-6.415A17.682,17.682,0,0,1,27.605,3.024a17.758,17.758,0,0,1,6.415,7.79,17.682,17.682,0,0,1-1.632,16.791A17.757,17.757,0,0,1,24.6,34.02,17.6,17.6,0,0,1,17.706,35.411Zm.1-28.785A11.183,11.183,0,1,0,28.992,17.809,11.2,11.2,0,0,0,17.809,6.627Z" transform="translate(0 5.177)" fill="url(#linear-gradient)"/>
      <ellipse id="Ellipse_3" data-name="Ellipse 3" cx="5.074" cy="5.074" rx="5.074" ry="5.074" transform="translate(30.441)" fill="url(#linear-gradient-2)"/>
    </g>
    <path id="Path_94" data-name="Path 94" d="M22.095,24.118a11.127,11.127,0,0,0-5.93,7.466c-1.066,4.551,3.369,6.475,3.733,5.844.428-.741-.795-.992-1.047-3.353a9.913,9.913,0,0,1,2.882-7.952c.332-.278.316.109.316.824,0,1.279-.071,12.759-.071,15.155a21.214,21.214,0,0,1-.375,5.277c-.244,1.025-.637,1.718-.339,1.985.332.3,1.751-.411,2.572-1.556A8.52,8.52,0,0,0,25.228,43c.075-2.157.072-5.581.075-7.533,0-1.791.03-7.035-.031-10.187-.015-.773-2.163-1.584-3.177-1.16ZM108.163,39.29a9.891,9.891,0,0,1-.916,3.932c-.9,1.8-2.761,2.358-3.552-.228a14.587,14.587,0,0,1-.141-5.731c.316-2,1.2-3.517,2.655-3.381,1.439.135,2.113,1.986,1.954,5.408ZM83.905,49.746c-.019,2.8-.461,5.256-1.408,5.969-1.343,1.011-3.148.253-2.774-1.791.331-1.808,1.895-3.655,4.186-5.911,0,0,0,.515,0,1.733Zm-.367-10.473a11.066,11.066,0,0,1-.916,3.948c-.9,1.8-2.775,2.361-3.552-.228a12.965,12.965,0,0,1-.141-5.5c.341-1.872,1.169-3.609,2.655-3.609,1.445,0,2.158,1.583,1.954,5.392ZM69.486,39.25a10,10,0,0,1-.916,3.972c-.922,1.786-2.747,2.353-3.552-.228a13.817,13.817,0,0,1-.141-5.771c.358-2.035,1.255-3.477,2.655-3.341,1.438.14,2.137,1.986,1.954,5.368Zm64.4,1.9c-.352,0-.512.362-.644.971-.461,2.118-.945,2.6-1.569,2.6-.7,0-1.324-1.048-1.485-3.147a70.009,70.009,0,0,1,.056-7.711c.034-.621-.138-1.235-1.807-1.841-.718-.26-1.762-.643-2.281.609a31.126,31.126,0,0,0-2.178,7.487c-.007.059-.08.071-.092-.067a58.125,58.125,0,0,1-.3-6.063,1.815,1.815,0,0,0-.9-1.734c-.488-.308-1.971-.852-2.506-.2a13.662,13.662,0,0,0-1.555,3.645c-.453,1.373-.767,2.3-.767,2.3s.005-3.706.012-5.111a.721.721,0,0,0-.473-.739,9.9,9.9,0,0,0-1.882-.383c-.51,0-.635.285-.635.7,0,.054-.081,4.879-.081,8.252,0,.147,0,.306,0,.476-.282,1.55-1.2,3.655-2.192,3.655s-1.467-.88-1.467-4.9c0-2.346.071-3.366.106-5.063.02-.977.059-1.728.057-1.9-.007-.522-.912-.786-1.333-.883a3.946,3.946,0,0,0-1.077-.12.672.672,0,0,0-.694.655c0,.2,0,.569,0,.569a3.885,3.885,0,0,0-1.925-1.557A3.7,3.7,0,0,0,102,33.248a9.765,9.765,0,0,0-1.736,4.953,14.678,14.678,0,0,0,.181,4.5c-.351,1.517-1,2.138-1.718,2.138-1.037,0-1.789-1.69-1.7-4.612a26.459,26.459,0,0,1,.864-5.223,1.689,1.689,0,0,0-.332-1.685,2.1,2.1,0,0,0-2.079-.338c-.732.171-1.779.356-2.737.5a5.508,5.508,0,0,0,.105-.636c.249-2.129-2.068-1.956-2.807-1.276a2.617,2.617,0,0,0-.856,1.745,2.057,2.057,0,0,0,.935,2.01,20.764,20.764,0,0,1-2.19,5.439A23.476,23.476,0,0,1,86.563,42.9q0-.373,0-.744c-.011-3.518.036-6.286.056-7.284.02-.977.059-1.708.057-1.878-.006-.382-.229-.526-.694-.709a4.936,4.936,0,0,0-1.4-.312c-.636-.049-1.019.287-1.009.686,0,.075,0,.537,0,.537a3.889,3.889,0,0,0-1.925-1.558,3.706,3.706,0,0,0-4.269,1.607,10.59,10.59,0,0,0-1.736,4.937,15.113,15.113,0,0,0,.089,4.235c-.24,1.183-.929,2.42-1.709,2.42-1,0-1.564-.88-1.564-4.9,0-2.346.071-3.366.105-5.063.02-.977.059-1.728.057-1.9-.007-.522-.912-.786-1.333-.883a3.882,3.882,0,0,0-1.113-.118.715.715,0,0,0-.656.63V33.2a3.888,3.888,0,0,0-1.925-1.558,3.718,3.718,0,0,0-4.269,1.607,9.369,9.369,0,0,0-1.736,4.914,16.513,16.513,0,0,0-.13,2.147c-.311,1.9-1.684,4.086-2.808,4.086-.657,0-1.283-1.273-1.283-3.986,0-3.613.224-8.758.262-9.254,0,0,1.419-.024,1.694-.027.708-.008,1.349.009,2.292-.039.473-.024.929-1.719.441-1.928a16.91,16.91,0,0,0-2.4-.191c-.521-.012-1.972-.119-1.972-.119s.13-3.415.16-3.776c.026-.3-.364-.455-.587-.549a8.053,8.053,0,0,0-1.606-.458c-.8-.164-1.157,0-1.228.667-.106,1.018-.161,4-.161,4-.584,0-2.58-.114-3.164-.114-.543,0-1.129,2.331-.378,2.36.864.033,2.369.062,3.367.092,0,0-.044,5.23-.044,6.844,0,.172,0,.337,0,.5a7.893,7.893,0,0,1-2.483,4.4c.415-1.89-.433-3.31-1.962-4.511-.563-.443-1.675-1.281-2.918-2.2a7.5,7.5,0,0,0,1.359-2.135c.453-1.01.472-2.166-.639-2.421a3.321,3.321,0,0,0-3.8,2.361,2.735,2.735,0,0,0,.522,2.8c.05.063.1.127.16.191-.414.8-.984,1.871-1.466,2.7-1.338,2.311-2.349,4.14-3.113,4.14-.611,0-.6-1.856-.6-3.594,0-1.5.111-3.75.2-6.083a1.7,1.7,0,0,0-1-1.609,4.518,4.518,0,0,0-1.72-.717c-.728,0-2.828.1-4.813,5.829-.25.722-.741,2.038-.741,2.038l.042-6.891a.48.48,0,0,0-.284-.425,4.907,4.907,0,0,0-2.022-.552q-.568,0-.567.526l-.069,10.781a15.824,15.824,0,0,0,.1,2.193,2.3,2.3,0,0,0,.374.962,1.073,1.073,0,0,0,.658.42c.288.059,1.862.261,1.943-.34a22.044,22.044,0,0,1,.928-4.4c1.287-4.52,2.965-6.725,3.753-7.508.138-.137.3-.145.288.079-.034.991-.152,3.467-.232,5.571-.214,5.629.812,6.673,2.278,6.673,1.122,0,2.7-1.112,4.4-3.929,1.057-1.755,2.083-3.476,2.82-4.716.514.475,1.09.986,1.666,1.531,1.339,1.268,1.778,2.474,1.487,3.617-.223.874-1.063,1.775-2.558.9-.436-.255-.622-.453-1.06-.741a.754.754,0,0,0-.81-.039,2.878,2.878,0,0,0-1.063,1.62c-.178.646.47.987,1.141,1.285a8.87,8.87,0,0,0,2.613.516c3.087.1,5.56-1.488,7.282-5.592.308,3.544,1.62,5.55,3.9,5.55,1.523,0,3.051-1.966,3.719-3.9a6.846,6.846,0,0,0,.842,2.053c1.756,2.777,5.162,2.179,6.873-.179a4.389,4.389,0,0,0,.609-.991,3.218,3.218,0,0,0,3.074,3c1.152,0,2.341-.544,3.175-2.417a5.74,5.74,0,0,0,.321.582c1.756,2.777,5.162,2.179,6.873-.179.081-.111.151-.211.212-.3l.05,1.463L82.2,47.276c-2.637,2.415-4.642,4.248-4.79,6.381-.189,2.721,2.021,3.732,3.693,3.865a4.717,4.717,0,0,0,4.232-2.209c.822-1.206,1.36-3.8,1.321-6.367-.016-1.027-.042-2.333-.062-3.732a29.9,29.9,0,0,0,2.933-4.022,30.415,30.415,0,0,0,2.746-5.869s.976.008,2.017-.06c.333-.022.429.046.367.29-.074.294-1.316,5.074-.183,8.257a4,4,0,0,0,3.56,2.881,3.531,3.531,0,0,0,3-2.273,4.77,4.77,0,0,0,.239.433c1.756,2.777,5.15,2.176,6.873-.179a6.994,6.994,0,0,0,.609-.991,3.341,3.341,0,0,0,3.193,3.016c1.072,0,2.089-.438,2.913-2.387a8.807,8.807,0,0,0,.174,1.78c.052.135.356.305.578.387a4.432,4.432,0,0,0,2.349.117c.257-.052.456-.257.483-.786a31.253,31.253,0,0,1,.451-5.464,16.015,16.015,0,0,1,1.684-4.6c.175-.314.373-.365.38-.034.015.672.048,2.644.323,5.293a12.08,12.08,0,0,0,.678,3.465,1.912,1.912,0,0,0,1.916,1.092c.378,0,1.168-.1,1.1-.768a21.136,21.136,0,0,1,.725-5.193,25.213,25.213,0,0,1,1.491-4.189c.1-.228.149-.048.147-.013a37.593,37.593,0,0,0,.34,7.825c.715,3.13,2.781,3.48,3.5,3.48,1.537,0,2.795-1.167,3.218-4.239.1-.739-.049-1.31-.5-1.31" transform="translate(169.969 157)"/>
  </g>
</svg>
